<?xml version="1.0" encoding="utf-8"?>
<!-- Generator: Adobe Illustrator 27.2.0, SVG Export Plug-In . SVG Version: 6.00 Build 0)  -->
<svg version="1.1" id="Camada_1" xmlns="http://www.w3.org/2000/svg" xmlns:xlink="http://www.w3.org/1999/xlink" x="0px" y="0px"
	 viewBox="0 0 470 150" style="enable-background:new 0 0 470 150;" xml:space="preserve">
<style type="text/css">
	.st0{fill:#316094;}
	.st1{fill:#FFFFFF;}
</style>
<path class="st0" d="M112,124.7c-2.1-5.7-4.7-12.7-6.9-20c-4.1-13.6-7.6-26.8-7.5-26.8c2.7-1.8,26.3-17.9,43.5-27.6
	c0.3-0.2,5.3-3,5.8-6.5c0.1-1,0-1.9-0.3-2.8c-0.9-2.6-3-4.9-9.1-5.2c-4.8-0.4-13.1-0.9-22.4-0.4c-9,0.3-18.6,1.3-25.8,2.5
	c0,0-2.9-17.6-3.9-24.9c-0.1-0.5-0.6-3.2-1.3-4.4c-0.8-1.2-2-2.3-4-2.7c-2.2-0.4-3.7,0.2-4.8,0.9c-1.1,0.8-2.6,3-3,3.6
	C67.6,17,54.7,36,48.2,46.9c0,0-20.1,6.2-32.4,11.3c-3.6,1.5-4,3.3-4.1,4.3c-0.1,0.7,0,2.6,2.8,4.9c3.6,3,14.8,12.2,14.8,12.2
	c-4,6.3-19.2,37.3-20.7,46c-0.4,2.5-0.4,5.1,1.4,7.4c1.1,1.5,3.2,2.5,5.3,2.6c2.6,0,6.1-2.7,7.6-3.8c12.1-8.7,35.8-26.8,35.8-26.8
	c8.9,8,27.8,25.2,37.7,34.5c1.2,1.1,4.8,4.5,8.4,4.6c6.8,0.2,9-5.6,9.4-7.7C115,131.8,112.6,126.6,112,124.7L112,124.7z M19.4,63.9
	c-0.3-0.2-1.2-0.9-1.1-1.8c0-0.4,0.3-0.8,0.8-1.2c0.2-0.1,1-0.5,1.1-0.5c2.1-0.8,11.5-4.2,24.3-7.2c-3.3,5.8-5.5,9.4-7.1,12.1
	c-3.6,6.2-3.5,6.5-5,9C32.4,74.2,21.9,65.9,19.4,63.9L19.4,63.9z M25.1,113.9c-0.3,0.2-1.6,1.1-1.9,1.2c-2.7,1.3-3.2-0.3-3.4-1
	c-0.3-1.3,0.8-3.7,0.9-3.9c2.5-5.5,12.8-27.2,12.8-27.2s12.7,10.8,15.8,13.6C49.3,96.6,31,109.8,25.1,113.9z M90.6,105.9
	c2.1,7.2,4.5,14.8,5.7,18.5c0.3,0.9,0.4,1.9,0,2.5c-0.3,0.5-0.9,0.7-1.8,0.3c-0.3-0.2-1.4-1-1.5-1.1c-4.6-4.1-28.6-25.1-28.6-25.1
	l20.7-14.6C85.2,86.4,87.9,96.7,90.6,105.9z M54.7,92.6c0,0-17.3-14.4-18.2-15.2c0,0,11-20.6,14.4-25.8c2.1-0.6,18.2-3.5,25.8-4.5
	c0,0,2.3,12.5,5.6,26.9C82.2,74,59.9,88.8,54.7,92.6L54.7,92.6z M102.9,44.7c7.4-0.4,15.3-0.4,15.9-0.4c1.9,0,3.4,0.2,3.7,1
	c0.4,1.1-0.5,2.3-1.8,3.3c-0.3,0.2-4.8,3.2-9.6,6.4c-7.3,5-16.5,11-16.5,11c0.1,0.2-3.5-16-4.2-20.3C90.5,45.6,96.6,45.1,102.9,44.7
	L102.9,44.7z M69.1,23.7c0.2-0.2,1.4-1.7,2.3-1.7s1.2,1.1,1.3,1.7c0.2,1.4,0.5,3.3,1,6.5c0.8,4.7,1.7,10.1,1.7,10.1
	c-5,1-16.8,3.8-20.7,4.9C58.8,38.3,66.6,26.9,69.1,23.7L69.1,23.7z"/>
<g>
	<path class="st1" d="M159.4,76.5h11.9c4.2,0,7.6,0.6,10.3,1.9c5,2.4,7.7,6.9,7.7,13.2c0,5.3-2.3,11-9.1,13.7
		c-2.6,1-5.8,1.6-9.8,1.6h-1.6v15.3h-9.5L159.4,76.5L159.4,76.5z M171,99.2c2,0,3.7-0.3,4.9-0.9c2.4-1.1,3.5-3.5,3.5-6.7
		c0-2.6-1-5-3.3-6.4c-1.3-0.8-3-1-5.3-1h-2v15H171L171,99.2z"/>
	<path class="st1" d="M196.4,99.4c0-13.9,9.6-23.4,23.3-23.4s23.3,9.6,23.3,23.4s-9.6,23.4-23.3,23.4S196.4,113.4,196.4,99.4z
		 M232.8,99.4c0-9.9-5.3-15.4-13.2-15.4s-13.2,5.5-13.2,15.4s5.3,15.5,13.2,15.5S232.8,109.5,232.8,99.4z"/>
	<path class="st1" d="M253.3,111.6c2.9,1.9,6.4,3.4,10.4,3.4c3.5,0,7.1-1.2,7.1-4.7c0-8.2-19.5-7.2-19.5-21.2c0-6.9,5.5-13,15.3-13
		c4.9,0,8.9,1.1,11.6,2.4V87c-4-1.9-7.6-3-11.3-3c-2.9,0-5.5,1-5.5,4.2c0,7.8,19.5,6.7,19.5,21.2c0,8.3-7.3,13.4-16.8,13.4
		c-5.3,0-10.7-1.4-14.3-4.2L253.3,111.6L253.3,111.6z"/>
	<path class="st1" d="M289.8,76.5h9.5v45.7h-9.5V76.5z"/>
	<path class="st1" d="M318.8,84.6h-13.3v-8h37.3l-2.5,8h-12v37.6h-9.5L318.8,84.6L318.8,84.6z"/>
	<path class="st1" d="M348.1,76.5h9.5v45.7h-9.5V76.5z"/>
	<path class="st1" d="M363.2,76.5h10.2l9.1,23.8c1.3,3.3,2.4,6.3,3.3,9h0.1c0.9-2.6,1.9-5.7,3.3-9.1l9.1-23.8h10.2l-18.6,46h-8
		L363.2,76.5L363.2,76.5z"/>
	<path class="st1" d="M412.4,99.4c0-13.9,9.6-23.4,23.3-23.4S459,85.7,459,99.4s-9.6,23.4-23.3,23.4S412.4,113.4,412.4,99.4z
		 M448.9,99.4c0-9.9-5.3-15.4-13.2-15.4s-13.2,5.5-13.2,15.4s5.3,15.5,13.2,15.5S448.9,109.5,448.9,99.4z"/>
</g>
<g>
	<path class="st1" d="M159.1,58.4c-0.4-1.1-0.6-2.5-0.6-4V39.8h3.1v14.5c0,1.2,0.1,2.3,0.5,3.2c0.8,2,2.6,3.2,5.2,3.2
		s4.5-1.1,5.3-3.2c0.4-0.9,0.5-2,0.5-3.3V39.8h3.1v14.7c0,1.5-0.2,2.9-0.7,4c-1.2,3.1-4.1,4.7-8.2,4.7S160.3,61.6,159.1,58.4
		L159.1,58.4z"/>
	<path class="st1" d="M180.8,46.3h2.6l0.4,2c1.8-1.5,3.6-2.5,5.7-2.5c2.6,0,5,1.5,5,5.9v11.1h-3.1V52.8c0-2.3-0.6-4.2-2.8-4.2
		c-1.7,0-3.3,1-4.8,2.2v12h-3.1L180.8,46.3L180.8,46.3z"/>
	<path class="st1" d="M198.4,40.9c0-1.1,0.8-2,2-2s2,0.8,2,2s-0.9,2-2,2S198.4,42,198.4,40.9z M198.8,46.3h3.1v16.6h-3.1
		C198.8,62.9,198.8,46.3,198.8,46.3z"/>
	<path class="st1" d="M204.3,46.3h3.2l4.6,12.6h0.1l4.4-12.6h3.2L213.3,63h-2.5L204.3,46.3L204.3,46.3z"/>
	<path class="st1" d="M224,55.3c0,3.1,2,5.4,5.2,5.4c1.6,0,3-0.5,4.1-1.1l0.9,2.1c-1.5,1-3.5,1.5-5.4,1.5c-5.5,0-8-4-8-8.8
		c0-5,2.8-8.6,7-8.6s6.8,3.3,6.8,8.6v0.8H224L224,55.3z M231.5,52.9c0-2.3-1.2-4.6-3.6-4.6s-3.8,2.1-3.9,4.6H231.5z"/>
	<path class="st1" d="M237.8,46.3h2.6l0.4,2c1.8-1.9,3.1-2.5,4.7-2.5c0.7,0,1.5,0.2,2,0.5l-1.1,2.7c-0.5-0.3-1.1-0.4-1.6-0.4
		c-1.1,0-2.2,0.6-3.8,2.1v12h-3.1L237.8,46.3L237.8,46.3z"/>
	<path class="st1" d="M248.3,59.4c1.1,0.6,2.5,1.3,4.3,1.3s3.4-0.7,3.4-2.4c0-3.4-7.8-2.2-7.8-7.7c0-2.6,2.1-4.7,5.8-4.7
		c1.6,0,3.2,0.3,4.3,0.8v2.7c-1.2-0.5-2.6-1-4.2-1c-1.5,0-2.9,0.5-2.9,2c0,3.4,7.8,2.2,7.8,7.8c0,3.4-2.9,4.9-6.3,4.9
		c-2.3,0-4.2-0.7-5.4-1.5L248.3,59.4L248.3,59.4z"/>
	<path class="st1" d="M261.9,40.9c0-1.1,0.8-2,2-2s2,0.8,2,2s-0.9,2-2,2S261.9,42,261.9,40.9z M262.3,46.3h3.1v16.6h-3.1
		C262.3,62.9,262.3,46.3,262.3,46.3z"/>
	<path class="st1" d="M268.9,54.8c0-5.3,3.8-8.9,8.7-8.9c0.9,0,1.8,0.1,2.6,0.3v-8.1h3.1v24c-1.3,0.7-3.4,1.2-5.5,1.2
		C272.8,63.2,268.9,60.3,268.9,54.8L268.9,54.8z M280.2,60.2V48.9c-0.8-0.2-1.4-0.4-2.4-0.4c-3.2,0-5.7,2.2-5.7,6.2
		c0,3.6,2.2,5.9,5.8,5.9C278.6,60.6,279.6,60.5,280.2,60.2z"/>
	<path class="st1" d="M296.8,61.1c-1.3,1.2-2.9,2.1-4.9,2.1c-3,0-5.3-2-5.3-5.2c0-2.2,1.1-3.7,2.8-4.5c1.1-0.6,2.5-0.8,4.2-0.8
		l3.1-0.1v-0.9c0-2.3-1.4-3.4-3.4-3.4c-1.9,0-3.3,0.6-4.5,1.3l-1.1-2.1c1.9-1.2,4-1.6,6-1.6c3.8,0,6.1,1.8,6.1,5.8v6
		c0,2.8,0.1,4.3,0.3,5.2h-2.7L296.8,61.1L296.8,61.1z M293.9,54.9c-1.3,0-2.2,0.2-2.9,0.6c-0.9,0.5-1.3,1.3-1.3,2.3
		c0,1.7,1.1,2.8,2.9,2.8c1.9,0,3.3-1.2,4-1.9v-4L293.9,54.9L293.9,54.9z"/>
	<path class="st1" d="M302.8,54.8c0-5.3,3.8-8.9,8.7-8.9c0.9,0,1.8,0.1,2.6,0.3v-8.1h3.1v24c-1.3,0.7-3.4,1.2-5.5,1.2
		C306.7,63.2,302.8,60.3,302.8,54.8L302.8,54.8z M314.1,60.2V48.9c-0.8-0.2-1.4-0.4-2.4-0.4c-3.2,0-5.7,2.2-5.7,6.2
		c0,3.6,2.2,5.9,5.8,5.9C312.5,60.6,313.5,60.5,314.1,60.2z"/>
	<path class="st1" d="M325.4,55.3c0,3.1,2,5.4,5.2,5.4c1.6,0,3-0.5,4.1-1.1l1,2.1c-1.5,1-3.5,1.5-5.4,1.5c-5.5,0-8-4-8-8.8
		c0-5,2.8-8.6,7-8.6s6.8,3.3,6.8,8.6v0.8H325.4L325.4,55.3z M332.9,52.9c0-2.3-1.2-4.6-3.6-4.6s-3.8,2.1-3.9,4.6H332.9L332.9,52.9z"
		/>
</g>
</svg>
